PathFileType	4	(X/Y/Z)	c:/Users/goper/Files/vsCode/490R/osim_files/C10/C10_Fast_07.trc
DataRate	CameraRate	NumFrames	NumMarkers	Units                	OrigDataRate	OrigDataStartFrame	OrigNumFrames
250.00	250.00	9	36	mm	250.0	1986	3177
                Frame#	Time	LPSIS			LASIS			LTH1			LTH2			LTH3			LTH4			LLFE			LMFE			LSH1			LSH2			LSH3			LSH4			LLMAL			LMMAL			LCAL			LMTP5			LTOE			LMTP1			RPSIS			RASIS			RTH1			RTH2			RTH3			RTH4			RLFE			RMFE			RSH1			RSH2			RSH3			RSH4			RLMAL			RMMAL			RCAL			RMTP1			RTOE			RMTP5		
		X1	Y1	Z1	X2	Y2	Z2	X3	Y3	Z3	X4	Y4	Z4	X5	Y5	Z5	X6	Y6	Z6	X7	Y7	Z7	X8	Y8	Z8	X9	Y9	Z9	X10	Y10	Z10	X11	Y11	Z11	X12	Y12	Z12	X13	Y13	Z13	X14	Y14	Z14	X15	Y15	Z15	X16	Y16	Z16	X17	Y17	Z17	X18	Y18	Z18	X19	Y19	Z19	X20	Y20	Z20	X21	Y21	Z21	X22	Y22	Z22	X23	Y23	Z23	X24	Y24	Z24	X25	Y25	Z25	X26	Y26	Z26	X27	Y27	Z27	X28	Y28	Z28	X29	Y29	Z29	X30	Y30	Z30	X31	Y31	Z31	X32	Y32	Z32	X33	Y33	Z33	X34	Y34	Z34	X35	Y35	Z35	X36	Y36	Z36

1986	7.94000	242.89975	988.06165	268.01953	78.77792	963.02002	386.41870	165.11365	733.26099	426.41541	161.19173	684.82153	419.89127	104.39265	731.53448	414.37540	111.80692	685.27234	407.61935	194.39262	446.70099	369.34183	183.93195	426.03281	255.05061	294.49103	422.39301	376.39996	333.83618	393.74988	378.57047	258.85849	371.41235	370.43103	300.55606	349.05469	367.61829	533.34692	214.48076	343.59991	0.00000	0.00000	0.00000	599.61908	265.80634	307.89621	563.98273	90.76492	349.27374	536.40601	56.90986	280.21307	573.33051	85.43180	241.20905	246.69043	993.63550	182.57385	94.04654	984.36713	50.38169	97.60876	718.11707	7.85156	74.95956	680.12347	12.40304	42.75815	744.23962	10.24987	25.95974	703.85205	12.33892	-37.62272	487.65067	82.89483	-38.57847	486.84720	194.15599	20.46622	389.71732	64.71776	12.88434	346.45340	64.40044	-41.76625	392.87192	76.44203	-39.77935	350.19611	72.43190	-12.95457	85.49706	110.63644	0.00000	0.00000	0.00000	48.50963	45.04079	145.29420	-146.15103	30.63418	183.49825	-178.02063	49.50920	154.13174	-131.81400	31.78857	88.11618
1987	7.94400	237.25168	988.43042	268.08075	72.99609	964.41473	385.98544	157.07150	733.15930	425.77066	152.37508	684.69861	419.31662	96.32183	732.13867	413.60995	103.07005	685.77509	407.02399	182.04744	446.20325	368.64557	171.61288	426.14978	253.74510	281.71753	422.59583	375.76425	321.17957	394.14270	378.12955	246.50328	371.40979	369.82352	288.30081	349.34058	367.18677	522.87592	218.00481	343.54544	0.00000	0.00000	0.00000	586.45135	270.50974	308.47266	553.66968	94.40077	349.41336	525.10864	57.12307	280.08438	564.51910	89.31168	241.68507	240.61577	994.58612	182.41370	88.25152	985.71393	49.80776	93.40313	719.44403	7.45553	71.00154	681.27130	11.91273	38.35304	745.15222	9.93707	21.94352	704.68365	11.79901	-40.16079	487.65128	82.72227	-40.62135	486.62024	193.84674	19.46537	389.99442	65.04769	12.03682	346.58609	64.62663	-42.98132	392.71588	76.18842	-39.92864	350.06735	72.31873	-12.96245	85.45645	110.53614	0.00000	0.00000	0.00000	48.46670	44.98293	145.29968	-146.34978	30.78010	183.56793	-178.00168	49.43093	154.09787	-131.79407	31.76735	88.04281
1988	7.94800	231.64772	988.92859	268.06155	67.33397	965.83276	385.67200	149.02119	733.11792	425.22705	143.18396	684.69598	418.34311	88.29926	732.86200	412.92596	94.31709	686.06274	405.61804	169.41631	445.61697	367.50421	159.32397	426.50021	252.42409	268.89691	422.91431	375.05051	308.57471	394.70267	377.67853	234.08293	371.54758	369.13785	275.93625	349.67108	366.71161	511.81738	221.69197	343.56339	0.00000	0.00000	0.00000	575.15479	274.09818	308.73370	542.76392	97.62612	349.64175	515.00006	59.33260	280.50598	554.43768	92.28869	242.12454	234.68376	995.65936	182.23997	82.21516	987.14496	49.30479	89.16712	720.84839	7.16056	67.14848	682.50049	11.49744	33.92967	746.06281	9.76121	17.93045	705.41266	11.38447	-42.53748	487.65347	82.50031	-42.72984	486.37714	193.52798	18.43863	390.20728	65.34716	11.22589	346.79974	64.77113	-44.06829	392.60849	75.83186	-40.73595	349.93466	71.99899	-12.97673	85.44524	110.45435	0.00000	0.00000	0.00000	48.49228	44.96549	145.25783	-146.47350	30.97098	183.62582	-177.98470	49.37788	154.04747	-131.81757	31.73229	87.94592
1989	7.95200	226.13441	989.55731	267.97217	61.86707	967.20380	385.48257	140.96475	733.16541	424.60458	135.05626	684.81049	418.23889	80.46645	733.71667	412.19107	85.82295	686.94843	405.21936	156.99770	445.46036	366.73837	147.17137	427.00040	251.06679	256.06879	423.37195	374.21060	295.86081	395.37695	377.17105	221.62399	371.79587	368.28699	263.54578	350.19766	366.16440	500.55133	225.16632	343.32837	0.00000	0.00000	0.00000	565.36047	277.14047	308.78906	531.25269	100.87263	349.93793	503.77982	62.72707	280.53131	543.76300	95.00188	242.50128	228.87538	996.82410	182.06322	79.07292	988.08856	50.11008	85.03572	722.24023	6.94235	63.30812	683.72308	11.13093	29.02015	746.93695	9.97929	13.97084	706.06879	11.15399	-44.76524	487.57852	82.26872	-44.63465	486.11145	193.18033	17.49531	390.42456	65.54561	10.53871	346.97717	64.82369	-44.83241	392.77942	75.28168	-41.51682	349.78857	71.59469	-12.94105	85.42815	110.34405	0.00000	0.00000	0.00000	48.53428	44.98954	145.18562	-146.44890	30.99836	183.60277	-177.92963	49.36737	153.97969	-131.83643	31.70635	87.87370
1990	7.95600	220.60167	990.25952	267.82642	56.38760	968.59796	385.42206	133.02565	733.29565	423.99750	126.55389	685.02869	417.66013	72.66136	734.61816	411.37131	77.37853	687.88947	404.74152	144.50652	445.43332	365.88000	135.05603	427.65308	249.74980	243.22354	423.96082	373.26291	283.20688	396.13846	376.52634	209.08386	372.15674	367.33234	251.11145	350.75775	365.47040	490.01758	228.19882	343.16403	0.00000	0.00000	0.00000	555.94672	279.39420	308.84262	518.96887	104.09906	350.26776	491.33548	66.32645	280.59598	531.97974	97.46595	242.74222	223.10356	998.07660	181.82526	73.16598	989.65686	50.03193	80.84314	723.59991	6.69434	59.95735	684.91986	10.98262	25.25118	747.81030	9.40783	9.91892	706.86810	10.93237	-46.80293	487.49811	81.96632	-46.36649	485.80753	192.82874	16.54475	390.62659	65.56811	9.85791	347.17419	64.74778	-45.84325	392.70013	74.89529	-42.26581	349.69385	71.16000	-12.96335	85.42642	110.26256	0.00000	0.00000	0.00000	48.54969	44.95033	145.14465	-146.27873	31.09943	183.69087	-177.89894	49.34861	153.93106	-131.84154	31.69821	87.81740
1991	7.96000	215.14908	991.11151	267.62045	51.12093	969.92291	385.46460	125.21056	733.56403	423.48123	118.03482	685.32330	417.14243	64.80107	735.58453	410.58072	69.07089	688.85974	404.17404	132.15997	445.67017	365.08725	123.01492	428.44592	248.47319	230.37440	424.63977	372.26611	270.40857	396.97992	375.81522	196.42932	372.61520	366.40314	238.57797	351.44031	364.73175	479.52737	231.17439	343.27664	0.00000	0.00000	0.00000	546.01550	281.18051	308.54724	506.23691	107.02624	350.63483	478.07761	69.60715	281.03009	519.03912	99.60610	243.02246	217.34441	999.45868	181.59203	67.41090	991.20142	50.05025	76.60262	724.92908	6.43747	56.01759	686.11554	10.69883	20.81525	748.71649	9.32098	5.78402	707.66913	10.72576	-48.51934	487.43631	81.57451	-48.14661	485.47623	192.44467	15.69421	390.84082	65.47694	9.12250	347.29791	64.49206	-47.06017	392.39456	74.75461	-42.96786	349.60880	70.75562	-12.93578	85.41116	110.15974	0.00000	0.00000	0.00000	48.55615	44.93708	145.10808	-146.26241	31.06530	183.63147	-177.84129	49.31362	153.85696	-131.81752	31.66391	87.73209
1992	7.96400	209.71754	992.07123	267.39658	45.84880	971.25348	385.62201	116.29051	733.47137	423.02927	109.56812	685.72510	416.61880	57.00822	736.74756	409.82083	60.65149	689.94641	403.56226	119.29053	445.85425	364.21198	110.92335	429.34415	247.28548	217.44562	425.40643	371.25266	257.66345	397.97687	374.98880	183.76662	373.28909	365.48141	225.93527	352.24506	364.01883	468.52945	234.18460	343.31400	0.00000	0.00000	0.00000	536.42767	282.91904	308.26624	492.79446	109.47857	351.04596	463.91904	72.46542	281.67938	505.13138	101.64402	243.48598	211.60277	1000.85925	181.31375	61.54174	992.83411	50.21852	72.38250	726.27753	6.20570	51.90737	687.23505	10.34809	16.44432	749.60498	9.19471	1.63657	708.42371	10.55217	-50.12918	487.31549	81.15903	-50.06705	485.20517	191.96277	14.77359	391.07440	65.21049	8.42339	347.45673	64.20819	-47.97324	392.33884	74.30685	-43.67437	349.55292	70.28288	-12.95614	85.39641	110.05544	0.00000	0.00000	0.00000	48.51580	44.89888	145.10301	-146.30182	31.04665	183.53149	-177.82039	49.31134	153.80022	-131.82373	31.65738	87.68660
1993	7.96800	204.33357	993.09924	267.03116	40.79876	972.50311	385.89389	108.06161	733.56793	422.39847	101.05952	686.22406	416.06946	49.29211	738.00110	409.05286	52.25763	691.14716	402.88931	106.53645	446.22675	363.37384	98.83994	430.37601	246.19202	204.50598	426.33490	370.17572	244.83949	399.06900	374.10538	171.10547	374.09601	364.63522	213.34082	353.19955	363.28088	456.89441	237.07915	343.17032	0.00000	0.00000	0.00000	525.94287	284.21008	307.73218	479.28555	111.90140	351.45309	449.22928	75.00110	282.43759	490.90628	103.07998	243.68475	205.90416	1002.37982	180.93286	55.59491	994.48438	50.45154	68.10960	727.57031	6.02313	47.89023	688.39948	10.10412	11.98386	750.44208	9.19961	-2.49172	709.24866	10.46640	-51.46535	487.26834	80.63548	-51.83712	484.94281	191.50980	13.89635	391.25644	64.83529	7.64334	347.61539	63.81879	-48.93048	392.23788	73.92656	-44.38892	349.46683	69.86933	-12.98891	85.36979	109.96168	0.00000	0.00000	0.00000	48.55439	44.88014	145.07011	-146.22910	31.17350	183.55742	-177.79349	49.29784	153.75111	-131.82188	31.63296	87.61832
1994	7.97200	198.96114	994.23236	266.68942	35.72505	973.70123	386.19339	100.29408	734.12537	421.79230	92.66711	686.88879	415.56741	41.43840	739.05206	408.04257	43.96172	692.35858	402.27603	93.82397	446.84872	362.58679	86.77795	431.58102	245.02773	191.68129	427.39108	369.07632	232.04872	400.27930	373.20255	158.37399	374.96262	363.87369	200.67146	354.30148	362.52838	444.71054	239.50145	342.88998	0.00000	0.00000	0.00000	514.93976	285.20016	306.96140	465.69037	114.12128	351.82657	434.27167	77.27063	283.29730	476.13791	104.41340	244.02663	200.18452	1003.92450	180.49695	49.66093	996.13776	50.73822	63.72811	728.82550	5.76630	43.85254	689.54968	9.84152	7.50047	751.35150	9.17232	-6.62363	710.08527	10.41425	-52.71785	487.17807	80.07961	-53.58592	484.68341	191.06561	12.93466	391.42737	64.29874	6.89585	347.81332	63.37135	-49.59665	392.39349	73.24214	-45.23871	349.39703	69.43740	-13.03289	85.37100	109.82576	0.00000	0.00000	0.00000	48.54787	44.91431	145.03596	-146.20003	31.30976	183.57410	-177.76009	49.28298	153.68796	-131.81026	31.62153	87.57117
